<?xml version="1.0" encoding="UTF-8"?>
<svg id="Layer_2" data-name="Layer 2" xmlns="http://www.w3.org/2000/svg" viewBox="0 0 263.66 56.39">
  <defs>
    <style>
      .cls-1 {
        font-family: RoobertTRIAL-SemiBold, 'Roobert TRIAL';
        font-variation-settings: 'wght' 650, 'ital' 0, 'MONO' 0;
        font-weight: 600;
      }

      .cls-1, .cls-2 {
        letter-spacing: -.05em;
      }

      .cls-3 {
        font-size: 12.28px;
      }

      .cls-3, .cls-4 {
        fill: #fff;
      }

      .cls-2, .cls-5 {
        font-family: RoobertTRIAL-Medium, 'Roobert TRIAL';
        font-variation-settings: 'wght' 500, 'ital' 0, 'MONO' 0;
        font-weight: 500;
      }

      .cls-5 {
        letter-spacing: -.06em;
      }

      .cls-4 {
        font-family: RoobertTRIAL-Bold, 'Roobert TRIAL';
        font-size: 13.31px;
        font-variation-settings: 'wght' 750, 'ital' 0, 'MONO' 0;
        font-weight: 700;
      }

      .cls-6 {
        stroke-width: .5px;
      }

      .cls-6, .cls-7 {
        fill: none;
        stroke: #fff;
        stroke-miterlimit: 10;
      }

      .cls-7 {
        stroke-width: .5px;
      }

      .cls-8 {
        letter-spacing: -.05em;
      }

      .cls-9 {
        letter-spacing: -.13em;
      }

      .cls-10 {
        letter-spacing: -.04em;
      }

      .cls-11 {
        letter-spacing: -.05em;
      }

      .cls-12 {
        letter-spacing: -.06em;
      }
    </style>
  </defs>
  <g id="Layer_1-2" data-name="Layer 1">
    <g>
      <g>
        <text class="cls-3" transform="translate(70.5 25.26)"><tspan class="cls-5" x="0" y="0">A</tspan><tspan class="cls-2" x="7.42" y="0">sociación de</tspan><tspan class="cls-1" x="71.56" y="0"> </tspan></text>
        <text class="cls-4" transform="translate(69.59 41.49)"><tspan class="cls-12" x="0" y="0">M</tspan><tspan class="cls-11" x="11" y="0">unicipalidades </tspan><tspan class="cls-9" x="93.32" y="0">T</tspan><tspan class="cls-11" x="99.3" y="0">urí</tspan><tspan class="cls-8" x="113.9" y="0">s</tspan><tspan class="cls-10" x="119.4" y="0">ticas de Chile</tspan></text>
      </g>
      <g>
        <path class="cls-6" d="M41.17,50.66c.03-1.13-.26-2.32-.75-3.25-.65-1.21-1.77-2.02-3.07-2.41-4.2-1.27-10.82.13-13.79-2.26-1.78-1.43-2.32-3.64-2.92-5.75-.65-2.26-1.83-4.79-4.39-4.95-3.53-.22-8.06,1.05-10.99,2.98-1.63,1.07-3.55,2.98-3.38,5.12.12,1.52,1.5,3.48,2.08,4.3.39.55.76,1,1.51,1.88.28.33,1.1,1.3,2.54,2.83,1.28,1.35,1.92,2.02,2.36,2.4.51.44,1.59,1.62,4.16,3.3,3.54,2.32,8.26.37,12.33.54,2.84.12,5.23,1.01,7.98.88.91-.04,2.17-.2,3.05-.46,1.79-.52,2.37-1.91,2.98-3.57.18-.49.27-1.04.28-1.61Z"/>
        <path class="cls-6" d="M40,50.4c.1,3.88-3.66,4.73-6.94,4.56-4-.2-6.96-.26-10.93.3-3.41.49-6-.22-8.83-2.49-2.55-2.04-3.93-4.59-6.51-6.66-2.36-1.89-4.58-4.6-2.81-7.65,1.24-2.12,3.9-3.71,6.17-4.45,2.24-.73,5.32-1.06,7.49.16,2.77,1.55,2.14,5.56,3.95,7.91,1.99,2.59,4.93,3.26,8.1,3.24,3.47-.03,8.38-.54,9.97,3.38.22.54.34,1.12.35,1.69h0Z"/>
        <path class="cls-6" d="M11.81,45.54c-.78-.9-1.42-1.89-1.85-3.01-.35-.91-.63-2.03-.21-2.96.5-1.1,1.8-1.39,2.9-1.43,1.71-.06,3.01,1.1,3.98,2.38,1.08,1.42,1.91,2.99,3.03,4.39.68.85,1.34,1.71,1.98,2.59.37.51.76,1.11.61,1.72-.07.29-.25.54-.46.76-.33.35-.74.63-1.19.78-.99.33-2.08,0-3.01-.44-2.06-1-3.73-2.61-5.3-4.24-.16-.17-.32-.34-.47-.52Z"/>
        <path class="cls-6" d="M11.26,46.72c-.38-.4-.76-.8-1.14-1.2-.67-.7-1.36-1.41-1.89-2.23s-.88-1.79-.8-2.76c.08-1.03.64-1.98,1.41-2.66,1.28-1.12,3.04-1.63,4.71-1.39,1.68.24,3.02,1.72,3.94,3.05.93,1.35,1.64,2.84,2.63,4.13,1.02,1.32,2.32,2.41,3.65,3.41.52.39,1.04.77,1.52,1.2.41.37,1.06.87,1.06,1.47,0,1.07-2.02,1.88-2.83,2.18-3.01,1.08-6.1.03-8.58-1.79-1.35-1-2.54-2.19-3.7-3.41Z"/>
        <path class="cls-6" d="M10.57,47.13c-1.8-1.92-4.92-4.14-4.5-7.15.44-3.09,4.43-4.83,7.21-4.7,3.73.17,4.49,3.44,6.14,6.13,1.32,2.15,3.14,3.91,5.35,5.12,1.35.74,2.86,1.1,4.33,1.52.74.21,1.49.44,2.2.74.36.15.73.29,1.06.51.16.11.32.23.45.37.14.16.27.37.2.59-.06.2-.2.35-.37.47-.1.07-.21.14-.33.19-.31.15-.65.23-.98.33-.04.01-.08.03-.13.04-.82.27-1.66.49-2.5.68-1.65.37-3.33.63-4.98.99-3.61.78-6.82.56-9.62-2.04-1.27-1.18-2.31-2.57-3.54-3.79Z"/>
        <path class="cls-6" d="M9.1,46.48c-2.41-2.15-5.58-5.24-3.24-8.6,1.79-2.58,6.24-4.14,9.25-3.19,3.33,1.05,3.71,5.26,5.63,7.74,1.65,2.13,3.94,3.57,6.53,4.25,2.62.69,8.53.03,9.49,3.34.72,3.57-8.93,2.89-11.23,3.34-4.5.88-8.51,1.48-12.01-2.1-1.52-1.56-2.85-3.27-4.42-4.79h0Z"/>
        <path class="cls-6" d="M59.66,24.98c-.03-.22-.07-.45-.11-.67-.11-.63-.22-1.38-.6-1.91-.3-.42-.87-.59-1.37-.64-.93-.09-1.93.19-2.77.58-3.54,1.65-4.55,6-7.25,8.53-5.31,4.98-13.24,1.31-19.59,2.15-3.93.52-5.52,3.14-2.89,6.48,2.66,3.38,5.53,2.1,9.09,2.03,3.45-.07,4.85,2.81,7,4.96.85.85,1.82,1.5,2.86,1.94,2.99,1.27,6.04.37,6.76.13,2.13-.7,3.83-2.25,5.08-4.07,1.79-2.59,2.83-5.7,3.51-8.75.4-1.81.69-3.65.68-5.5,0-1.76-.14-3.52-.4-5.27Z"/>
        <path class="cls-6" d="M42.91,39.93c-.01-.11-.02-.22-.02-.32,0-.95.79-1.73,1.46-2.31.73-.63,1.55-1.15,2.37-1.63,1.49-.88,3.09-1.63,4.73-2.19.37-.13.72-.21,1.11-.25.12-.01.24-.02.36,0,.94.1,1.35,1.14,1.57,1.93.14.53.19,1.08.15,1.62-.09,1.11-.55,2.15-1.18,3.05-.67.95-1.55,1.75-2.52,2.38s-1.99,1.05-3.09,1.23c-1.34.21-2.75-.06-3.72-1.06-.46-.47-.79-1.05-1.02-1.67-.09-.25-.16-.5-.2-.76Z"/>
        <path class="cls-6" d="M42.36,42.95c-.9-.88-1.8-1.93-2.24-3.13-.64-1.78,1.15-2.84,2.5-3.52,1.45-.74,3.04-1.21,4.44-2.05.78-.46,1.48-1.04,2.19-1.6.75-.6,1.51-1.2,2.35-1.69.39-.23.8-.43,1.23-.58.21-.07.42-.13.63-.17.36-.07.66-.09,1.01.04.52.19.83.62,1.09,1.08.16.3.3.61.41.94.22.66.32,1.35.33,2.05,0,.73-.08,1.46-.25,2.17-.17.75-.43,1.47-.74,2.17-.32.71-.71,1.4-1.15,2.04s-.93,1.24-1.47,1.79c-.52.53-1.09,1.01-1.7,1.42-.58.38-1.2.7-1.85.92-.5.17-1.02.27-1.55.3-1.99.09-3.84-.79-5.22-2.19Z"/>
        <path class="cls-6" d="M38.91,40.46c-.42-.54-.8-1.09-1.06-1.68-.09-.2-.16-.41-.15-.62.07-1.26,2.27-2.03,3.24-2.34,1.35-.43,2.78-.66,4.07-1.25,1.53-.7,2.88-1.66,4.19-2.7,1.26-1,2.37-2.17,3.63-3.17.68-.55,1.41-1.05,2.2-1.42.29-.14.59-.26.91-.26.5,0,.95.32,1.24.72.93,1.3.92,3.12.86,4.65-.07,1.76-.4,3.5-.96,5.17-.5,1.48-1.2,2.86-2.11,4.13-.69.97-1.5,1.86-2.43,2.61-.87.7-1.84,1.27-2.9,1.62-1.03.34-2.13.44-3.21.28-.81-.13-1.6-.4-2.32-.79-1.24-.66-2.27-1.65-3.2-2.69-.62-.7-1.36-1.45-1.99-2.25Z"/>
        <path class="cls-6" d="M38.97,41.74c-.8-.79-1.66-1.57-2.66-2.1-.98-.52-2.08-.87-2.93-1.61-.11-.09-.21-.21-.29-.33-.05-.07-.09-.17-.07-.25.01-.06.04-.11.08-.15.16-.21.43-.35.67-.46.27-.13.56-.22.85-.3.59-.17,1.18-.32,1.78-.45.02,0,.04,0,.06-.01,1.19-.26,2.39-.45,3.59-.68,1.08-.21,2.15-.45,3.19-.78.02,0,.03-.01.05-.02,3.39-1.09,5.6-3.19,7.99-5.72.53-.56,1.05-1.13,1.64-1.64.59-.51,1.26-.99,2.02-1.2.82-.23,1.67-.08,2.3.5.39.36.68.83.89,1.31.23.55.36,1.14.44,1.73.08.66.1,1.33.07,1.99-.03.7-.1,1.41-.21,2.1-.1.7-.24,1.39-.4,2.07-.15.63-.32,1.26-.51,1.89-.16.52-.33,1.04-.53,1.56-.06.16-.12.32-.19.47-1.9,4.51-6.47,8.77-11.74,7.08-1.8-.58-3.19-1.89-4.45-3.24-.56-.6-1.09-1.18-1.65-1.74Z"/>
        <path class="cls-6" d="M38.7,42.84c-.3-.29-.62-.57-.96-.83-1.22-.92-2.62-1.61-4.12-1.92-1.72-.35-3.51-.21-5.17-.88-.63-.25-1.23-.62-1.64-1.17-.3-.4-.56-.89-.37-1.35.2-.47.81-.75,1.3-.91,2.68-.9,5.53-1.13,8.35-1.13,2.18,0,4.39.09,6.52-.48,2.07-.55,3.96-1.75,5.53-3.19,1.37-1.26,2.58-2.67,3.86-4.01,1.75-1.84,4.76-3.76,6.55-.8.99,1.63.62,4.85.41,6.97-.46,4.77-2.1,9.94-6.07,12.96-1.82,1.38-4.03,2.24-6.33,1.89-2.13-.32-4.01-1.54-5.62-2.91-.8-.69-1.48-1.5-2.23-2.23Z"/>
        <path class="cls-6" d="M56.31,17.16c-.83-4.47-7.66-9-12.79-7.54-1.12.32-2.96,2.15-6.55,5.84-2.45,2.52-4.9,5.04-7.27,7.62-1.58,1.73-3.71,3.23-5.17,4.98-2,2.38.39,4.29,2.91,3.94,3.21-.45,5.81-1.72,9.19-1.48,2.85.2,6.12,1.21,8.03-1.61,2.02-2.98,1.17-5.31,3.88-7.21,2.75-1.93,6.34-.18,7.56-2.25.48-.81.31-1.71.2-2.29Z"/>
        <path class="cls-6" d="M53.75,17.32c-.04,2.49-2.55,2.82-4.38,3.43-2.76.93-3.24,2.68-4.17,5.25-2.11,5.83-9.15,3.28-14.12,3.93-1.68.22-5.07,1.45-4.71-1.78.18-1.62,2.35-3.07,3.42-4.23,3.83-4.17,7.6-9.01,12.1-12.47,4.31-3.32,9.3-.92,11.39,3.83.29.66.49,1.3.48,2.03h0Z"/>
        <path class="cls-6" d="M36.7,26.04c-3.42-2.15,4.13-9.9,6.16-11.05,2.62-1.48,5.07-.12,3.56,2.85-.93,1.84-2.18,3.7-3.25,5.49-1.32,2.21-3.79,4.21-6.48,2.72h0Z"/>
        <path class="cls-6" d="M35.97,27.37s-.06-.01-.09-.02c-.78-.18-1.61-.49-2.03-1.18-.34-.57-.32-1.29-.17-1.93.29-1.22,1.01-2.29,1.77-3.29,1.35-1.77,2.87-3.41,4.54-4.88,1.07-.95,2.22-1.84,3.53-2.42,2.09-.93,6.29-1.07,6.23,2.2-.02,1.2-.7,2.31-1.52,3.19-.82.88-1.79,1.61-2.61,2.5-1.68,1.83-2.73,4.35-4.95,5.47-1.43.72-3.13.71-4.7.36Z"/>
        <path class="cls-6" d="M32.16,27.34c-1.65-1.27.3-4.01,1.12-5.17,1.79-2.5,4.03-4.69,6.34-6.7,1.51-1.32,3.07-2.85,5.05-3.42,1.97-.57,4.25.17,5.53,1.79,1.15,1.45,1.08,3.38-.24,4.68-1.21,1.19-2.74,1.89-3.85,3.21-1.14,1.37-1.69,3.1-2.74,4.52-2.15,2.91-8.32,3.15-11.23,1.07Z"/>
        <path class="cls-7" d="M30.15,27.76c-.1-.25-.14-.52-.15-.79,0-.62.2-1.21.44-1.77.71-1.63,1.8-3.05,2.97-4.36,1.21-1.36,2.48-2.66,3.69-4.02,1.56-1.76,3.12-3.59,5.1-4.84.78-.49,1.63-.87,2.53-.99,1.21-.16,2.45.14,3.51.77,1.16.69,2.35,1.83,2.79,3.18.45,1.35.03,2.77-.94,3.74-.73.72-1.63,1.21-2.48,1.76-1.37.88-2.3,2-3.02,3.5-.66,1.38-1.21,2.87-2.31,3.93-.06.05-.11.11-.17.16-1.14,1-2.66,1.4-4.14,1.47-1.14.05-2.28-.07-3.41-.19-1.05-.11-2.13-.18-3.15-.48-.23-.07-.46-.15-.66-.28-.28-.19-.48-.47-.6-.8Z"/>
        <path class="cls-6" d="M37.7,6.11v1.03c0,2.14-1.95,3.81-3.28,5.39-2.41,2.87-5.03,5.56-7.79,8.11-1.82,1.68-3.06,3.31-4.14,5.53-.82,1.7-1.89,3.82-4.04,3.93-1.16.06-2.24-.52-3.38-.73-1.75-.32-3.55.26-5.13,1.06-1.59.8-3.06,1.84-4.7,2.53-.87.36-1.8.63-2.73.57-.52-.03-1.06-.2-1.37-.61-.43-.57-.23-1.39.05-2.04,1.09-2.47,3.19-4.28,4.68-6.49,1.67-2.46,3.01-5.13,4.79-7.51,2.11-2.82,4.45-5.47,6.65-8.22,1.59-2,3.08-3.96,5.31-5.29,2.11-1.26,4.57-1.96,7.03-1.91,2.73.05,8.04,1.37,8.04,4.66Z"/>
        <path class="cls-6" d="M39.95,4.78c.58,3.42-2.9,6.8-5.04,9.15-1.39,1.53-2.92,3.05-4.27,4.49-1.64,1.76-2.99,3.24-4.36,4.8-1.06,1.21-2.21,2.36-3.1,3.7-.75,1.13-1.15,2.58-2.25,3.44-.81.63-1.89.81-2.92.82-1.97,0-4.02-.38-5.98-.12-3.3.43-6.01,3.11-9.33,3.35-.75.05-1.77-.04-2.28-.68-.53-.66-.38-1.75-.09-2.48,1.24-3.13,2.87-5.73,4.79-8.28,1.85-2.46,3.53-5.04,5.43-7.46,5.2-6.59,7.59-9.3,8.16-9.93,2.2-2.45,2.48-2.63,3.42-3.53C24.22.09,27.24.17,29.49.08c0,0,6.37-.04,9.6,2.92.4.36.72.96.86,1.79Z"/>
        <path class="cls-6" d="M15.01,23.45c-.33-.13-.63-.34-.83-.64-.38-.55-.38-1.27-.26-1.93.23-1.33.86-2.56,1.56-3.72,1.54-2.54,3.48-4.81,5.52-6.97.79-.84,1.61-1.68,2.56-2.33,1.55-1.07,4.46-2,5.9-.23.44.53.59,1.26.52,1.94-.06.68-.32,1.34-.63,1.95-1.58,3.17-4.47,5.44-6.93,7.98-.85.87-1.66,1.79-2.61,2.56s-2.05,1.39-3.26,1.55c-.51.07-1.07.03-1.54-.16Z"/>
        <path class="cls-6" d="M12.2,25.3s-.02-.01-.03-.02c-.32-.21-.61-.46-.79-.8-.22-.41-.24-.89-.2-1.35.1-1.16.55-2.25,1.07-3.29,1.16-2.31,2.66-4.44,4.26-6.47,1.6-2.04,3.31-3.99,5.15-5.81,1.42-1.4,2.95-2.61,4.97-2.94,1.65-.27,3.7-.02,4.83,1.34.73.89.93,2.13.73,3.27-.2,1.13-.76,2.17-1.4,3.13-2.07,3.1-4.99,5.51-7.57,8.21-1.51,1.58-2.94,3.3-4.83,4.42s-4.36,1.49-6.19.32Z"/>
        <path class="cls-6" d="M10.41,26.71c-1.39-.64-1.26-2.18-.87-3.43.48-1.52,1.22-2.95,2.03-4.32,1.58-2.67,3.45-5.15,5.44-7.53,1.85-2.21,3.74-4.7,6.06-6.45.59-.45,1.23-.83,1.92-1.12,1.28-.54,2.7-.71,4.09-.61,1.2.09,2.42.38,3.39,1.09,3.65,2.66.29,7.36-1.78,9.81-1.47,1.74-3.15,3.28-4.75,4.89-1.64,1.65-3.2,3.39-4.67,5.19-1.29,1.58-2.79,2.72-4.86,3.05-1.66.26-3.37.05-5.02-.29-.37-.08-.69-.17-.97-.3Z"/>
        <path class="cls-6" d="M7.55,27.06c-.38-.72-.33-1.64-.16-2.46.67-3.14,3.09-5.46,4.78-8.11,1.61-2.54,3.68-4.7,5.63-6.96s3.32-4.51,5.9-5.94c1.87-1.04,4.06-1.43,6.18-1.21,1.89.2,4.42.84,5.32,2.72.66,1.37.19,3.02-.47,4.39-2.63,5.39-8.01,8.86-11.61,13.66-1.23,1.64-2.33,3.5-4.14,4.46-1.01.53-2.15.73-3.28.88-2.08.28-4.22.44-6.24-.14-.64-.18-1.29-.46-1.7-.98-.08-.1-.14-.2-.2-.31Z"/>
      </g>
    </g>
  </g>
</svg>